<svg width="25" height="25" viewBox="0 0 25 25" fill="none" xmlns="http://www.w3.org/2000/svg">
<g clip-path="url(#clip0_37_29)">
<path d="M11.3291 11.1021V7.10205H13.3291V11.1021H17.3291V13.1021H13.3291V17.1021H11.3291V13.1021H7.3291V11.1021H11.3291ZM12.3291 22.1021C6.8061 22.1021 2.3291 17.6251 2.3291 12.1021C2.3291 6.57905 6.8061 2.10205 12.3291 2.10205C17.8521 2.10205 22.3291 6.57905 22.3291 12.1021C22.3291 17.6251 17.8521 22.1021 12.3291 22.1021ZM12.3291 20.1021C14.4508 20.1021 16.4857 19.2592 17.986 17.7589C19.4862 16.2586 20.3291 14.2238 20.3291 12.1021C20.3291 9.98032 19.4862 7.94549 17.986 6.4452C16.4857 4.94491 14.4508 4.10205 12.3291 4.10205C10.2074 4.10205 8.17254 4.94491 6.67225 6.4452C5.17196 7.94549 4.3291 9.98032 4.3291 12.1021C4.3291 14.2238 5.17196 16.2586 6.67225 17.7589C8.17254 19.2592 10.2074 20.1021 12.3291 20.1021Z" fill="#FCFCFC"/>
</g>
<defs>
<clipPath id="clip0_37_29">
<rect width="24" height="24" fill="white" transform="translate(0.329102 0.102051)"/>
</clipPath>
</defs>
</svg>
