<svg width="25" height="25" viewBox="0 0 25 25" fill="none" xmlns="http://www.w3.org/2000/svg">
<g clip-path="url(#clip0_1_424)">
<path d="M10.8291 6.10205V8.10205H5.8291V19.1021H16.8291V14.1021H18.8291V20.1021C18.8291 20.3673 18.7237 20.6216 18.5362 20.8092C18.3487 20.9967 18.0943 21.1021 17.8291 21.1021H4.8291C4.56389 21.1021 4.30953 20.9967 4.12199 20.8092C3.93446 20.6216 3.8291 20.3673 3.8291 20.1021V7.10205C3.8291 6.83683 3.93446 6.58248 4.12199 6.39494C4.30953 6.20741 4.56389 6.10205 4.8291 6.10205H10.8291ZM21.8291 3.10205V11.1021H19.8291V6.51505L12.0361 14.3091L10.6221 12.8951L18.4141 5.10205H13.8291V3.10205H21.8291Z" fill="#5BDB8A"/>
</g>
<defs>
<clipPath id="clip0_1_424">
<rect width="24" height="24" fill="white" transform="translate(0.829102 0.102051)"/>
</clipPath>
</defs>
</svg>
