<svg width="25" height="25" viewBox="0 0 25 25" fill="none" xmlns="http://www.w3.org/2000/svg">
<g clip-path="url(#clip0_1_447)">
<path d="M12.3291 2.61768C6.8061 2.61768 2.3291 7.09468 2.3291 12.6177C2.3291 17.6087 5.9861 21.7457 10.7671 22.4967V15.5077H8.2271V12.6177H10.7671V10.4147C10.7671 7.90868 12.2591 6.52468 14.5441 6.52468C15.6381 6.52468 16.7821 6.71968 16.7821 6.71968V9.17968H15.5221C14.2791 9.17968 13.8921 9.95068 13.8921 10.7417V12.6177H16.6651L16.2221 15.5077H13.8921V22.4967C18.6721 21.7467 22.3291 17.6077 22.3291 12.6177C22.3291 7.09468 17.8521 2.61768 12.3291 2.61768Z" fill="#136ADB"/>
</g>
<defs>
<clipPath id="clip0_1_447">
<rect width="24" height="24" fill="white" transform="translate(0.329102 0.617676)"/>
</clipPath>
</defs>
</svg>
