<svg width="25" height="25" viewBox="0 0 25 25" fill="none" xmlns="http://www.w3.org/2000/svg">
<g clip-path="url(#clip0_1_437)">
<path d="M7.3291 6.60205V3.60205C7.3291 3.33683 7.43446 3.08248 7.62199 2.89494C7.80953 2.70741 8.06389 2.60205 8.3291 2.60205H20.3291C20.5943 2.60205 20.8487 2.70741 21.0362 2.89494C21.2237 3.08248 21.3291 3.33683 21.3291 3.60205V17.6021C21.3291 17.8673 21.2237 18.1216 21.0362 18.3092C20.8487 18.4967 20.5943 18.6021 20.3291 18.6021H17.3291V21.6021C17.3291 22.1541 16.8791 22.6021 16.3221 22.6021H4.3361C4.20423 22.6028 4.0735 22.5776 3.95142 22.5277C3.82935 22.4778 3.71833 22.4043 3.62476 22.3113C3.53119 22.2184 3.45689 22.1079 3.40616 21.9862C3.35542 21.8645 3.32923 21.7339 3.3291 21.6021L3.3321 7.60205C3.3321 7.05005 3.7821 6.60205 4.3391 6.60205H7.3291ZM5.3321 8.60205L5.3291 20.6021H15.3291V8.60205H5.3321ZM9.3291 6.60205H17.3291V16.6021H19.3291V4.60205H9.3291V6.60205Z" fill="#FCFCFC"/>
</g>
<defs>
<clipPath id="clip0_1_437">
<rect width="24" height="24" fill="white" transform="translate(0.329102 0.602051)"/>
</clipPath>
</defs>
</svg>
