<svg width="25" height="25" viewBox="0 0 25 25" fill="none" xmlns="http://www.w3.org/2000/svg">
<g clip-path="url(#clip0_1_428)">
<path d="M11.8291 7.10205H13.8291V17.1021H11.8291V7.10205ZM15.8291 11.1021H17.8291V17.1021H15.8291V11.1021ZM7.8291 13.1021H9.8291V17.1021H7.8291V13.1021ZM15.8291 4.10205H5.8291V20.1021H19.8291V8.10205H15.8291V4.10205ZM3.8291 3.09405C3.8291 2.54605 4.2761 2.10205 4.8281 2.10205H16.8291L21.8291 7.10205V21.0951C21.83 21.2264 21.8051 21.3566 21.7557 21.4783C21.7063 21.6 21.6334 21.7107 21.5412 21.8042C21.449 21.8977 21.3392 21.9722 21.2183 22.0233C21.0973 22.0744 20.9674 22.1011 20.8361 22.1021H4.8221C4.55948 22.1002 4.30812 21.9951 4.12232 21.8095C3.93652 21.6239 3.8312 21.3727 3.8291 21.1101V3.09405Z" fill="#5BDB8A"/>
</g>
<defs>
<clipPath id="clip0_1_428">
<rect width="24" height="24" fill="white" transform="translate(0.829102 0.102051)"/>
</clipPath>
</defs>
</svg>
