<svg width="25" height="25" viewBox="0 0 25 25" fill="none" xmlns="http://www.w3.org/2000/svg">
<g clip-path="url(#clip0_1_450)">
<path d="M22.4914 6.2736C21.728 6.6113 20.9184 6.83308 20.0894 6.9316C20.9632 6.40904 21.6171 5.58662 21.9294 4.6176C21.1094 5.1056 20.2104 5.4476 19.2734 5.6326C18.644 4.95918 17.8098 4.51257 16.9004 4.36219C15.9909 4.21181 15.0573 4.36609 14.2447 4.80106C13.432 5.23602 12.7858 5.92729 12.4065 6.7674C12.0272 7.6075 11.9361 8.54938 12.1474 9.4466C10.4845 9.36326 8.85773 8.93113 7.37269 8.17827C5.88764 7.42541 4.57753 6.36865 3.5274 5.0766C3.15569 5.71505 2.96035 6.44083 2.9614 7.1796C2.9614 8.6296 3.6994 9.9106 4.8214 10.6606C4.15741 10.6397 3.50803 10.4604 2.9274 10.1376V10.1896C2.9276 11.1553 3.26177 12.0912 3.87325 12.8387C4.48472 13.5861 5.33588 14.0991 6.2824 14.2906C5.66601 14.4576 5.01971 14.4823 4.3924 14.3626C4.65927 15.1938 5.17941 15.9208 5.87999 16.4417C6.58058 16.9626 7.42653 17.2514 8.2994 17.2676C7.43188 17.9489 6.43858 18.4526 5.37628 18.7498C4.31398 19.047 3.20353 19.1319 2.1084 18.9996C4.0201 20.229 6.24549 20.8817 8.5184 20.8796C16.2114 20.8796 20.4184 14.5066 20.4184 8.9796C20.4184 8.7996 20.4134 8.6176 20.4054 8.4396C21.2243 7.84777 21.931 7.11462 22.4924 6.2746L22.4914 6.2736Z" fill="#1DA1F2"/>
</g>
<defs>
<clipPath id="clip0_1_450">
<rect width="24" height="24" fill="white" transform="translate(0.329102 0.617676)"/>
</clipPath>
</defs>
</svg>
